<?xml version="1.0" encoding="UTF-8"?><svg id="Layer_1" xmlns="http://www.w3.org/2000/svg" viewBox="0 0 96 96"><path d="M86.12,45.88L50.12,9.88c-.14-.14-.3-.27-.46-.38-.07-.05-.14-.08-.22-.12-.1-.05-.19-.11-.3-.16-.1-.04-.2-.06-.3-.09-.09-.03-.17-.06-.26-.08-.39-.08-.79-.08-1.17,0-.09,.02-.18,.05-.26,.08-.1,.03-.2,.05-.3,.09-.11,.04-.2,.1-.3,.16-.07,.04-.15,.07-.22,.12-.17,.11-.32,.24-.46,.38L9.88,45.88c-1.17,1.17-1.17,3.07,0,4.24,1.17,1.17,3.07,1.17,4.24,0l30.88-30.88V84c0,1.66,1.34,3,3,3s3-1.34,3-3V19.24l30.88,30.88c1.17,1.17,3.07,1.17,4.24,0,.59-.59,.88-1.35,.88-2.12s-.29-1.54-.88-2.12Z"/></svg>