<?xml version="1.0" encoding="UTF-8"?><svg id="Layer_1" xmlns="http://www.w3.org/2000/svg" viewBox="0 0 96 96"><path d="M28,58c-9.93,0-18-8.07-18-18s8.07-18,18-18h16c7.05,0,13.15,4.08,16.1,10h6.53c-3.3-9.32-12.18-16-22.63-16H28c-13.25,0-24,10.75-24,24s10.75,24,24,24h1.37c-.67-1.9-1.11-3.91-1.28-6h-.09Z"/><path d="M62,40c0,9.93-8.07,18-18,18h-9.88c.24,2.14,.86,4.15,1.78,6h8.1c13.25,0,24-10.75,24-24,0-.67-.03-1.34-.09-2h-6.03c.07,.66,.12,1.32,.12,2Z"/><path d="M52,38h9.88c-.24-2.14-.86-4.15-1.78-6h-8.1c-13.25,0-24,10.75-24,24,0,.67,.03,1.34,.09,2h6.03c-.07-.66-.12-1.32-.12-2,0-9.93,8.07-18,18-18Z"/><path d="M68,32h-1.37c.67,1.9,1.11,3.91,1.28,6h.09c9.93,0,18,8.07,18,18s-8.07,18-18,18h-16c-7.05,0-13.15-4.08-16.1-10h-6.53c3.3,9.32,12.18,16,22.63,16h16c13.25,0,24-10.75,24-24s-10.75-24-24-24Z"/></svg>